<svg id="Layer_1" enable-background="new 0 0 512 512" height="512" viewBox="0 0 512 512" width="512" xmlns="http://www.w3.org/2000/svg"><g><g><g><path d="m363.683 113.267h33.133v47.6h-33.133z" fill="#babdce"/><path d="m455.367 123.5h-150.234c-8.836 0-16-7.163-16-16v-84c0-8.837 7.164-16 16-16h150.233c8.837 0 16 7.163 16 16v84c.001 8.837-7.163 16-15.999 16z" fill="#435d7a"/><path d="m430.233 90.367h-99.967c-4.418 0-8-3.582-8-8v-33.734c0-4.418 3.582-8 8-8h99.967c4.418 0 8 3.582 8 8v33.733c0 4.419-3.581 8.001-8 8.001z" fill="#b1e5a3"/><path d="m455.367 7.5h-23c8.836 0 16 7.163 16 16v84c0 8.837-7.164 16-16 16h23c8.836 0 16-7.163 16-16v-84c0-8.837-7.164-16-16-16z" fill="#2d3e53"/><path d="m430.233 40.633h-23c4.418 0 8 3.582 8 8v33.733c0 4.418-3.582 8-8 8h23c4.418 0 8-3.582 8-8v-33.733c0-4.418-3.581-8-8-8z" fill="#91d7a5"/></g><path d="m454.8 156.6c9.15 0 16.567 7.417 16.567 16.567v197.167h-430.734v-197.167c0-9.15 7.417-16.567 16.567-16.567z" fill="#e6ebef"/><path d="m454.8 156.6h-23c9.15 0 16.567 7.417 16.567 16.567v197.167h23v-197.167c0-9.15-7.418-16.567-16.567-16.567z" fill="#dae2ed"/><path d="m189.733 197h-99.4v-117.487c0-2.827 2.77-4.823 5.451-3.929l18.089 6.03c.85.283 1.769.283 2.619 0l22.23-7.41c.85-.283 1.769-.283 2.619 0l22.23 7.41c.85.283 1.769.283 2.619 0l18.089-6.03c2.682-.894 5.451 1.102 5.451 3.929v117.487z" fill="#fff0be"/><path d="m430.233 256h-166.233c-4.418 0-8-3.582-8-8v-50.267c0-4.418 3.582-8 8-8h166.233c4.418 0 8 3.582 8 8v50.267c0 4.418-3.581 8-8 8z" fill="#b1e5a3"/><path d="m206.3 363h-132.533v-91c0-8.837 7.163-16 16-16h100.533c8.837 0 16 7.163 16 16z" fill="#435d7a"/><path d="m430.233 189.733h-23c4.418 0 8 3.582 8 8v50.267c0 4.418-3.582 8-8 8h23c4.418 0 8-3.582 8-8v-50.267c0-4.418-3.581-8-8-8z" fill="#91d7a5"/><path d="m190.3 256h-23c8.836 0 16 7.164 16 16v91h23v-91c0-8.836-7.164-16-16-16z" fill="#2d3e53"/><path d="m184.282 75.584-17.549 5.85v115.566h23v-117.487c0-2.827-2.769-4.823-5.451-3.929z" fill="#fff0be"/><path d="m198.3 222.867h-116.533c-4.418 0-8-3.582-8-8v-17.133c0-4.418 3.582-8 8-8h116.533c4.418 0 8 3.582 8 8v17.133c0 4.418-3.582 8-8 8z" fill="#ffd23b"/><path d="m198.3 189.733h-23c4.418 0 8 3.582 8 8v17.133c0 4.418-3.582 8-8 8h23c4.418 0 8-3.582 8-8v-17.133c0-4.418-3.582-8-8-8z" fill="#ffb24a"/><path d="m488.5 504.5h-465c-8.837 0-16-7.163-16-16v-117.1c0-8.837 7.163-16 16-16h465c8.837 0 16 7.163 16 16v117.1c0 8.837-7.163 16-16 16z" fill="#7cb1f7"/><path d="m463.367 471.367h-414.734c-4.418 0-8-3.582-8-8v-66.833c0-4.418 3.582-8 8-8h414.733c4.418 0 8 3.582 8 8v66.833c.001 4.418-3.581 8-7.999 8z" fill="#f7f8fa"/><path d="m488.5 355.4h-23c8.836 0 16 7.163 16 16v117.1c0 8.837-7.164 16-16 16h23c8.836 0 16-7.163 16-16v-117.1c0-8.837-7.164-16-16-16z" fill="#5e9ff3"/><path d="m463.367 388.533h-23c4.418 0 8 3.582 8 8v66.833c0 4.418-3.582 8-8 8h23c4.418 0 8-3.582 8-8v-66.833c0-4.418-3.582-8-8-8z" fill="#e9eef2"/></g><g><path d="m445.733 82.334v-33.7c0-8.547-6.953-15.5-15.5-15.5h-99.967c-8.547 0-15.5 6.953-15.5 15.5v33.7c0 8.547 6.953 15.5 15.5 15.5h99.967c8.547 0 15.5-6.954 15.5-15.5zm-115.966 0v-33.7c0-.276.225-.5.5-.5h99.967c.275 0 .5.224.5.5v33.7c0 .276-.225.5-.5.5h-99.967c-.276 0-.5-.225-.5-.5z"/><path d="m488.5 347.9h-9.634v-174.733c0-13.271-10.796-24.066-24.066-24.066h-50.483v-18.133h51.05c12.958 0 23.5-10.542 23.5-23.5v-83.968c0-12.958-10.542-23.5-23.5-23.5h-150.233c-12.958 0-23.5 10.542-23.5 23.5v83.967c0 12.958 10.542 23.5 23.5 23.5h51.05v18.133h-158.95v-69.587c0-3.731-1.807-7.262-4.835-9.444-3.027-2.182-6.948-2.781-10.489-1.6l-17.027 5.675-21.169-7.057c-2.374-.79-4.988-.79-7.361 0l-21.169 7.056-17.027-5.675c-3.539-1.179-7.461-.583-10.488 1.6-3.027 2.182-4.835 5.712-4.835 9.444v69.588h-25.634c-13.271 0-24.067 10.796-24.067 24.066v23.719c0 4.142 3.358 7.5 7.5 7.5s7.5-3.358 7.5-7.5v-23.719c0-4.999 4.067-9.066 9.067-9.066h25.633v18.133h-1.067c-8.547 0-15.5 6.953-15.5 15.5v17.133c0 8.547 6.953 15.5 15.5 15.5h116.534c8.547 0 15.5-6.953 15.5-15.5v-17.133c0-8.547-6.953-15.5-15.5-15.5h-1.066v-18.133h257.566c4.999 0 9.066 4.067 9.066 9.066v174.734h-250.066v-75.9c0-12.958-10.542-23.5-23.5-23.5h-100.533c-12.958 0-23.5 10.542-23.5 23.5v75.9h-18.134v-121.014c0-4.142-3.358-7.5-7.5-7.5s-7.5 3.358-7.5 7.5v121.014h-9.633c-12.958 0-23.5 10.542-23.5 23.5v117.1c0 12.958 10.542 23.5 23.5 23.5h51.595c4.142 0 7.5-3.358 7.5-7.5s-3.358-7.5-7.5-7.5h-51.595c-4.687 0-8.5-3.813-8.5-8.5v-117.1c0-4.687 3.813-8.5 8.5-8.5h465c4.686 0 8.5 3.813 8.5 8.5v117.1c0 4.687-3.814 8.5-8.5 8.5h-383.405c-4.142 0-7.5 3.358-7.5 7.5s3.358 7.5 7.5 7.5h383.405c12.958 0 23.5-10.542 23.5-23.5v-117.1c0-12.958-10.542-23.5-23.5-23.5zm-289.7-150.167v17.133c0 .276-.224.5-.5.5h-116.533c-.276 0-.5-.224-.5-.5v-17.133c0-.276.224-.5.5-.5h116.533c.276 0 .5.225.5.5zm-100.967-15.5v-98.061l13.667 4.555c2.374.792 4.99.792 7.365.001l21.168-7.056 21.166 7.055c2.375.792 4.992.792 7.365.001l13.669-4.556v98.061zm198.801-74.766v-83.967c0-4.687 3.814-8.5 8.5-8.5h150.232c4.686 0 8.5 3.813 8.5 8.5v83.967c0 4.687-3.814 8.5-8.5 8.5h-150.232c-4.687 0-8.5-3.813-8.5-8.5zm74.55 41.633v-18.133h18.133v18.133zm-289.917 198.8v-75.9c0-4.687 3.813-8.5 8.5-8.5h100.533c4.687 0 8.5 3.813 8.5 8.5v75.9z"/><path d="m478.866 463.367v-66.834c0-8.547-6.953-15.5-15.5-15.5h-414.733c-8.547 0-15.5 6.953-15.5 15.5v66.834c0 8.547 6.953 15.5 15.5 15.5h414.733c8.547 0 15.5-6.953 15.5-15.5zm-430.733 0v-66.834c0-.276.224-.5.5-.5h414.733c.275 0 .5.224.5.5v66.834c0 .276-.225.5-.5.5h-414.733c-.276 0-.5-.224-.5-.5z"/><path d="m305.7 414.167h-99.4c-4.142 0-7.5 3.358-7.5 7.5s3.358 7.5 7.5 7.5h99.4c4.143 0 7.5-3.358 7.5-7.5 0-4.143-3.357-7.5-7.5-7.5z"/><path d="m445.733 248v-50.267c0-8.547-6.953-15.5-15.5-15.5h-166.233c-8.547 0-15.5 6.953-15.5 15.5v50.267c0 8.547 6.953 15.5 15.5 15.5h166.233c8.547 0 15.5-6.953 15.5-15.5zm-182.233 0v-50.267c0-.276.225-.5.5-.5h166.233c.275 0 .5.224.5.5v50.267c0 .276-.225.5-.5.5h-166.233c-.275 0-.5-.224-.5-.5z"/><path d="m297.417 281.633h-16.567c-4.143 0-7.5 3.358-7.5 7.5s3.357 7.5 7.5 7.5h16.567c4.143 0 7.5-3.358 7.5-7.5s-3.357-7.5-7.5-7.5z"/><path d="m297.417 314.767h-16.567c-4.143 0-7.5 3.358-7.5 7.5s3.357 7.5 7.5 7.5h16.567c4.143 0 7.5-3.358 7.5-7.5s-3.357-7.5-7.5-7.5z"/><path d="m355.4 281.633h-16.567c-4.143 0-7.5 3.358-7.5 7.5s3.357 7.5 7.5 7.5h16.567c4.143 0 7.5-3.358 7.5-7.5s-3.357-7.5-7.5-7.5z"/><path d="m355.4 314.767h-16.567c-4.143 0-7.5 3.358-7.5 7.5s3.357 7.5 7.5 7.5h16.567c4.143 0 7.5-3.358 7.5-7.5s-3.357-7.5-7.5-7.5z"/><path d="m413.384 281.633h-16.567c-4.143 0-7.5 3.358-7.5 7.5s3.357 7.5 7.5 7.5h16.567c4.143 0 7.5-3.358 7.5-7.5s-3.358-7.5-7.5-7.5z"/><path d="m413.384 314.767h-16.567c-4.143 0-7.5 3.358-7.5 7.5s3.357 7.5 7.5 7.5h16.567c4.143 0 7.5-3.358 7.5-7.5s-3.358-7.5-7.5-7.5z"/><path d="m156.6 115.967h-33.133c-4.142 0-7.5 3.358-7.5 7.5s3.358 7.5 7.5 7.5h33.133c4.142 0 7.5-3.358 7.5-7.5s-3.358-7.5-7.5-7.5z"/><path d="m156.6 149.1h-33.133c-4.142 0-7.5 3.358-7.5 7.5s3.358 7.5 7.5 7.5h33.133c4.142 0 7.5-3.358 7.5-7.5s-3.358-7.5-7.5-7.5z"/><path d="m173.166 281.633h-66.266c-4.142 0-7.5 3.358-7.5 7.5s3.358 7.5 7.5 7.5h66.267c4.142 0 7.5-3.358 7.5-7.5-.001-4.142-3.358-7.5-7.501-7.5z"/><path d="m173.166 314.767h-66.266c-4.142 0-7.5 3.358-7.5 7.5s3.358 7.5 7.5 7.5h66.267c4.142 0 7.5-3.358 7.5-7.5-.001-4.142-3.358-7.5-7.501-7.5z"/></g></g></svg>